<?xml version="1.0" encoding="UTF-8" standalone="no"?>
<!DOCTYPE svg PUBLIC "-//W3C//DTD SVG 1.1//EN"
 "http://www.w3.org/Graphics/SVG/1.1/DTD/svg11.dtd">
<!-- Generated by graphviz version 2.38.0 (20140413.2041)
 -->
<!-- Title: classes Pages: 1 -->
<svg width="670pt" height="439pt"
 viewBox="0.00 0.00 669.50 439.00" xmlns="http://www.w3.org/2000/svg" xmlns:xlink="http://www.w3.org/1999/xlink">
<g id="graph0" class="graph" transform="scale(1 1) rotate(0) translate(4 435)">
<title>classes</title>
<polygon fill="white" stroke="none" points="-4,4 -4,-435 665.5,-435 665.5,4 -4,4"/>
<!-- 0 -->
<g id="node1" class="node"><title>0</title>
<polygon fill="none" stroke="black" points="327,-331.5 327,-430.5 500,-430.5 500,-331.5 327,-331.5"/>
<text text-anchor="middle" x="413.5" y="-415.3" font-family="Times New Roman,serif" font-size="14.00">KuhnPoker.GameTreeNode</text>
<polyline fill="none" stroke="black" points="327,-407.5 500,-407.5 "/>
<text text-anchor="start" x="335" y="-392.3" font-family="Times New Roman,serif" font-size="14.00">cards : str</text>
<text text-anchor="start" x="335" y="-377.3" font-family="Times New Roman,serif" font-size="14.00">history : List[str]</text>
<polyline fill="none" stroke="black" points="327,-369.5 500,-369.5 "/>
<text text-anchor="start" x="335" y="-354.3" font-family="Times New Roman,serif" font-size="14.00">print_cards(): </text>
<text text-anchor="start" x="335" y="-339.3" font-family="Times New Roman,serif" font-size="14.00">print_history(): </text>
</g>
<!-- 1 -->
<g id="node2" class="node"><title>1</title>
<polygon fill="none" stroke="black" points="0,-53 0,-242 487,-242 487,-53 0,-53"/>
<text text-anchor="middle" x="243.5" y="-226.8" font-family="Times New Roman,serif" font-size="14.00">KuhnPoker.InitNode</text>
<polyline fill="none" stroke="black" points="0,-219 487,-219 "/>
<text text-anchor="start" x="8" y="-203.8" font-family="Times New Roman,serif" font-size="14.00">cards : str</text>
<text text-anchor="start" x="8" y="-188.8" font-family="Times New Roman,serif" font-size="14.00">history : list</text>
<text text-anchor="start" x="8" y="-173.8" font-family="Times New Roman,serif" font-size="14.00">player1_coin_list : list</text>
<text text-anchor="start" x="8" y="-158.8" font-family="Times New Roman,serif" font-size="14.00">player2_coin_list : list</text>
<polyline fill="none" stroke="black" points="0,-151 487,-151 "/>
<text text-anchor="start" x="8" y="-135.8" font-family="Times New Roman,serif" font-size="14.00">draw_coin_list(): </text>
<text text-anchor="start" x="8" y="-120.8" font-family="Times New Roman,serif" font-size="14.00">print_coin_result(): </text>
<text text-anchor="start" x="8" y="-105.8" font-family="Times New Roman,serif" font-size="14.00">print_num_of_win_game(): </text>
<text text-anchor="start" x="8" y="-90.8" font-family="Times New Roman,serif" font-size="14.00">run_ngames(coins, n, show_one_game_datails, show_step_result, show_coin_list): </text>
<text text-anchor="start" x="8" y="-75.8" font-family="Times New Roman,serif" font-size="14.00">show_result(result: int): </text>
<text text-anchor="start" x="8" y="-60.8" font-family="Times New Roman,serif" font-size="14.00">start_one_new_game(cards: str, display_cards, display_history, display_result): int</text>
</g>
<!-- 1&#45;&gt;0 -->
<g id="edge1" class="edge"><title>1&#45;&gt;0</title>
<path fill="none" stroke="black" d="M312.4,-242.326C332.577,-269.802 354.01,-298.988 371.924,-323.383"/>
<polygon fill="none" stroke="black" points="369.118,-325.475 377.858,-331.463 374.76,-321.332 369.118,-325.475"/>
</g>
<!-- 2 -->
<g id="node3" class="node"><title>2</title>
<polygon fill="none" stroke="black" points="505.5,-0.5 505.5,-294.5 661.5,-294.5 661.5,-0.5 505.5,-0.5"/>
<text text-anchor="middle" x="583.5" y="-279.3" font-family="Times New Roman,serif" font-size="14.00">KuhnPoker.PlayerNode</text>
<polyline fill="none" stroke="black" points="505.5,-271.5 661.5,-271.5 "/>
<text text-anchor="start" x="513.5" y="-256.3" font-family="Times New Roman,serif" font-size="14.00">action_list : list, List[str]</text>
<text text-anchor="start" x="513.5" y="-241.3" font-family="Times New Roman,serif" font-size="14.00">cards : str</text>
<text text-anchor="start" x="513.5" y="-226.3" font-family="Times New Roman,serif" font-size="14.00">history : List[str]</text>
<text text-anchor="start" x="513.5" y="-211.3" font-family="Times New Roman,serif" font-size="14.00">player_id</text>
<text text-anchor="start" x="513.5" y="-196.3" font-family="Times New Roman,serif" font-size="14.00">strategy_dict : dict</text>
<polyline fill="none" stroke="black" points="505.5,-188.5 661.5,-188.5 "/>
<text text-anchor="start" x="513.5" y="-173.3" font-family="Times New Roman,serif" font-size="14.00">evaluate(): int</text>
<text text-anchor="start" x="513.5" y="-158.3" font-family="Times New Roman,serif" font-size="14.00">is_call(): bool</text>
<text text-anchor="start" x="513.5" y="-143.3" font-family="Times New Roman,serif" font-size="14.00">is_double_check(): bool</text>
<text text-anchor="start" x="513.5" y="-128.3" font-family="Times New Roman,serif" font-size="14.00">is_fold(): bool</text>
<text text-anchor="start" x="513.5" y="-113.3" font-family="Times New Roman,serif" font-size="14.00">is_leaf_node(): bool</text>
<text text-anchor="start" x="513.5" y="-98.3" font-family="Times New Roman,serif" font-size="14.00">is_player_higher(): bool</text>
<text text-anchor="start" x="513.5" y="-83.3" font-family="Times New Roman,serif" font-size="14.00">judge_score(): int</text>
<text text-anchor="start" x="513.5" y="-68.3" font-family="Times New Roman,serif" font-size="14.00">sample_one(): str</text>
<text text-anchor="start" x="513.5" y="-53.3" font-family="Times New Roman,serif" font-size="14.00">take_acton(): </text>
<text text-anchor="start" x="513.5" y="-38.3" font-family="Times New Roman,serif" font-size="14.00">take_greedy_strategy(): </text>
<text text-anchor="start" x="513.5" y="-23.3" font-family="Times New Roman,serif" font-size="14.00">take_random_strategy(): </text>
<text text-anchor="start" x="513.5" y="-8.3" font-family="Times New Roman,serif" font-size="14.00">take_stable_strategy(): </text>
</g>
<!-- 2&#45;&gt;0 -->
<g id="edge2" class="edge"><title>2&#45;&gt;0</title>
<path fill="none" stroke="black" d="M505.341,-283.087C502.422,-287.147 499.472,-291.128 496.5,-295 488.968,-304.811 480.411,-314.69 471.721,-324.067"/>
<polygon fill="none" stroke="black" points="469.056,-321.792 464.741,-331.468 474.149,-326.595 469.056,-321.792"/>
</g>
</g>
</svg>
